<?xml version="1.0" standalone="no"?>
<!DOCTYPE svg PUBLIC "-//W3C//DTD SVG 20010904//EN"
 "http://www.w3.org/TR/2001/REC-SVG-20010904/DTD/svg10.dtd">
<svg version="1.0" xmlns="http://www.w3.org/2000/svg"
 width="1024.000000pt" height="1024.000000pt" viewBox="0 0 1024.000000 1024.000000"
 preserveAspectRatio="xMidYMid meet">
<metadata>
Created by potrace 1.14, written by Peter Selinger 2001-2017
</metadata>
<g transform="translate(0.000000,1024.000000) scale(0.100000,-0.100000)"
fill="#000000" stroke="none">
<path d="M4700 9152 c-14 -2 -37 -12 -51 -23 -14 -10 -29 -16 -33 -12 -3 3 -6
1 -6 -5 0 -7 -18 -19 -40 -28 -22 -9 -37 -20 -34 -25 3 -5 -4 -9 -15 -9 -12 0
-21 -5 -21 -11 0 -5 -4 -8 -8 -5 -5 3 -18 -3 -29 -14 -12 -10 -24 -16 -27 -13
-3 4 -6 1 -6 -6 0 -7 -4 -9 -10 -6 -5 3 -10 2 -10 -4 0 -6 -11 -13 -25 -17
-14 -3 -25 -10 -25 -14 0 -4 -11 -11 -25 -14 -14 -4 -25 -11 -25 -17 0 -6 -4
-7 -10 -4 -5 3 -10 2 -10 -3 0 -5 -9 -12 -21 -15 -14 -4 -18 -10 -13 -19 4 -7
4 -10 -1 -6 -4 4 -25 -2 -46 -13 -22 -11 -39 -16 -39 -12 -1 5 -8 -1 -18 -12
-24 -28 -58 -54 -48 -37 7 11 4 11 -12 1 -12 -7 -18 -17 -15 -22 3 -6 -5 -8
-20 -5 -18 4 -24 1 -20 -9 3 -7 -2 -13 -11 -13 -9 0 -16 -4 -16 -9 0 -8 -37
-24 -52 -22 -5 1 -8 -3 -8 -8 0 -5 -13 -14 -30 -21 -16 -7 -30 -17 -30 -22 0
-5 -4 -7 -9 -3 -6 3 -13 0 -18 -7 -10 -16 -53 -41 -60 -35 -2 3 -13 -3 -24
-14 -11 -11 -25 -17 -31 -13 -7 4 -8 3 -4 -4 4 -7 1 -12 -8 -12 -9 0 -16 -4
-16 -10 0 -5 -7 -10 -16 -10 -9 0 -12 -5 -8 -12 4 -6 3 -8 -4 -5 -14 9 -43 -3
-36 -14 3 -5 -6 -9 -20 -9 -14 0 -26 -4 -26 -10 0 -5 -7 -10 -15 -10 -9 0 -18
-7 -21 -15 -4 -8 -10 -13 -14 -10 -5 3 -14 -1 -22 -8 -7 -7 -28 -19 -45 -26
-18 -7 -33 -18 -33 -23 0 -5 -4 -7 -8 -4 -14 8 -53 -24 -45 -37 4 -7 0 -6 -10
2 -11 8 -17 9 -17 3 0 -7 -7 -9 -17 -5 -10 4 -14 2 -10 -4 6 -9 -29 -32 -43
-29 -3 0 -17 -9 -30 -22 -14 -12 -35 -25 -47 -28 -13 -4 -23 -10 -23 -14 0 -4
-13 -13 -30 -20 -16 -7 -42 -23 -57 -36 -15 -12 -30 -21 -35 -18 -4 3 -8 0 -8
-6 0 -6 -4 -8 -10 -5 -5 3 -10 1 -10 -4 0 -6 -6 -11 -13 -11 -7 0 -23 -9 -35
-20 -12 -12 -22 -18 -22 -14 0 3 -7 1 -15 -6 -8 -7 -15 -9 -15 -4 0 5 -4 4 -8
-2 -7 -11 -54 -40 -114 -71 -16 -8 -28 -18 -28 -23 0 -5 -7 -7 -15 -4 -8 4
-15 1 -15 -5 0 -6 -7 -11 -15 -11 -8 0 -15 -5 -15 -11 0 -5 -4 -7 -10 -4 -5 3
-10 1 -10 -5 0 -7 -7 -10 -15 -6 -9 3 -15 0 -15 -10 0 -9 -5 -14 -12 -12 -7 3
-21 -5 -33 -17 -11 -12 -28 -21 -38 -19 -13 2 -17 -2 -13 -12 3 -9 1 -12 -4
-9 -6 3 -23 -3 -39 -14 -16 -12 -34 -21 -40 -21 -6 0 -11 -4 -11 -10 0 -5 -9
-10 -19 -10 -10 0 -22 -7 -25 -16 -3 -8 -10 -13 -16 -9 -5 3 -18 -3 -29 -14
-11 -11 -22 -17 -25 -13 -3 3 -6 0 -6 -6 0 -10 -42 -29 -48 -21 -2 2 -8 -4
-13 -14 -6 -9 -14 -15 -20 -12 -5 4 -9 1 -9 -5 0 -6 -4 -8 -10 -5 -5 3 -10 -1
-10 -10 0 -9 -4 -14 -9 -11 -5 3 -20 -3 -34 -14 -14 -11 -30 -20 -36 -20 -7 0
-14 -7 -18 -16 -5 -13 -7 -13 -14 -2 -7 10 -9 11 -9 0 0 -7 -4 -11 -9 -8 -5 3
-12 -1 -15 -10 -4 -10 -12 -14 -22 -10 -12 5 -15 2 -10 -9 3 -9 2 -14 -3 -10
-5 3 -16 -2 -25 -11 -9 -8 -20 -12 -26 -9 -5 3 -10 2 -10 -4 0 -5 -9 -13 -20
-16 -12 -4 -17 -11 -13 -18 4 -7 -2 -5 -12 3 -10 8 -16 10 -12 3 6 -10 -20
-34 -43 -38 -23 -5 -58 -30 -53 -38 4 -6 1 -7 -6 -3 -7 5 -19 0 -27 -10 -9
-11 -12 -12 -8 -4 4 8 -4 5 -18 -7 -13 -13 -32 -23 -41 -23 -9 0 -17 -4 -17
-10 0 -5 -7 -10 -15 -10 -8 0 -15 -5 -15 -11 0 -6 -7 -9 -15 -5 -8 3 -15 2
-15 -2 0 -5 -14 -19 -31 -31 -18 -13 -29 -17 -25 -10 4 8 1 6 -7 -3 -8 -10
-17 -15 -20 -11 -4 3 -7 1 -7 -5 0 -11 -38 -28 -54 -24 -5 2 -6 -4 -2 -13 3
-9 2 -13 -3 -10 -9 5 -92 -36 -118 -59 -32 -28 -40 -33 -56 -30 -9 1 -15 -2
-11 -7 3 -5 -2 -9 -10 -9 -8 0 -22 -7 -30 -16 -9 -8 -16 -13 -16 -9 0 9 -46
-39 -57 -61 -12 -23 -12 -3733 0 -3751 4 -6 3 -14 -2 -17 -10 -7 -9 -52 2 -63
4 -3 2 -12 -4 -20 -9 -10 -8 -13 1 -13 10 0 10 -3 1 -14 -8 -10 -9 -16 -1 -21
5 -3 10 -19 10 -34 0 -17 10 -39 26 -55 15 -14 23 -26 18 -27 -5 0 2 -5 16
-11 14 -6 28 -10 33 -10 4 1 7 -3 7 -8 0 -6 7 -10 16 -10 8 0 12 -4 9 -10 -3
-5 3 -10 14 -10 12 0 21 -5 21 -11 0 -5 5 -7 10 -4 6 3 13 -1 16 -10 5 -11 10
-13 19 -5 10 9 16 6 25 -9 6 -12 16 -21 23 -21 7 0 25 -11 41 -25 27 -23 40
-29 59 -26 4 0 7 -6 7 -14 0 -8 6 -15 13 -15 7 0 23 -9 34 -19 12 -11 24 -17
27 -14 3 4 6 1 6 -5 0 -7 3 -11 8 -11 19 3 33 -2 27 -10 -3 -6 4 -8 15 -6 11
2 18 0 15 -6 -4 -5 1 -9 10 -9 9 0 13 -5 10 -10 -3 -6 3 -10 14 -10 12 0 21
-4 21 -9 0 -9 54 -35 66 -31 4 1 11 -5 16 -14 5 -9 13 -14 19 -11 5 4 9 1 9
-4 0 -6 7 -11 15 -11 8 0 15 -5 15 -11 0 -5 5 -7 10 -4 6 3 10 0 10 -8 0 -10
7 -14 22 -10 19 4 20 3 8 -7 -12 -10 -11 -11 8 -7 15 3 22 0 22 -9 0 -12 5
-15 25 -14 3 1 13 -6 21 -15 9 -8 22 -15 30 -15 8 0 13 -3 11 -7 -7 -12 17
-30 36 -27 9 1 17 -4 17 -12 0 -8 3 -13 8 -13 24 4 42 -2 36 -13 -4 -6 -3 -8
4 -4 6 3 17 -1 25 -9 9 -8 23 -15 31 -15 9 0 16 -4 16 -8 0 -9 50 -37 62 -34
4 1 5 -5 2 -13 -5 -11 -2 -13 9 -9 9 3 26 -3 38 -15 13 -12 32 -21 43 -21 12
0 27 -9 34 -20 7 -11 18 -20 25 -20 23 0 67 -25 67 -38 0 -7 4 -11 9 -7 5 3
13 0 16 -6 4 -5 13 -8 20 -5 7 2 16 -2 19 -10 3 -8 11 -14 19 -14 7 0 26 -14
42 -30 18 -19 32 -27 38 -21 6 6 19 0 34 -15 13 -13 29 -22 34 -19 5 4 9 1 9
-5 0 -6 5 -8 10 -5 6 3 10 1 10 -5 0 -6 4 -9 8 -6 5 3 14 -4 22 -14 8 -10 18
-17 22 -14 13 8 60 -25 52 -38 -4 -6 1 -8 15 -3 15 4 21 2 21 -9 0 -9 7 -13
20 -11 13 3 20 -2 21 -13 0 -12 2 -13 6 -4 4 10 9 8 20 -7 8 -12 21 -21 29
-21 8 0 14 -5 14 -11 0 -7 10 -9 25 -7 20 4 23 3 14 -8 -11 -13 -2 -17 28 -13
3 0 10 -6 15 -15 5 -9 13 -14 19 -11 5 4 9 2 9 -3 0 -5 9 -12 21 -15 12 -3 18
-10 14 -16 -4 -7 0 -8 11 -4 11 4 15 2 11 -4 -4 -6 1 -10 11 -9 9 0 16 -5 14
-12 -1 -6 1 -11 5 -11 21 3 44 -2 39 -9 -2 -4 5 -9 16 -9 12 -1 26 -7 32 -14
8 -9 7 -10 -3 -4 -9 5 -12 4 -7 -3 4 -6 13 -9 21 -5 9 3 15 -1 15 -10 0 -10 7
-13 20 -10 11 3 20 0 20 -6 0 -6 7 -11 15 -11 8 0 15 -5 15 -11 0 -5 5 -7 10
-4 6 3 13 -1 16 -9 3 -9 10 -14 14 -11 4 3 13 -2 20 -10 7 -8 16 -12 21 -9 5
3 9 0 9 -6 0 -6 5 -8 10 -5 6 3 10 1 10 -4 0 -6 7 -11 15 -11 8 0 15 -5 15
-11 0 -5 5 -7 10 -4 6 3 10 1 10 -4 0 -6 9 -11 21 -11 11 0 18 -3 16 -7 -3 -5
2 -15 11 -23 9 -8 17 -13 17 -11 0 9 45 -11 45 -20 0 -6 5 -7 10 -4 6 3 10 1
10 -5 0 -6 5 -8 10 -5 6 3 10 1 10 -4 0 -6 9 -11 21 -11 11 0 17 -5 14 -10 -3
-5 3 -10 14 -10 12 0 21 -5 21 -11 0 -6 7 -9 15 -5 9 3 15 0 15 -10 0 -8 4
-12 10 -9 5 3 10 -2 10 -12 0 -15 2 -16 10 -3 6 10 10 11 10 3 0 -7 9 -13 21
-13 11 0 17 -4 14 -10 -5 -9 -1 -11 20 -10 12 1 32 -26 27 -35 -3 -5 2 -4 11
4 15 12 17 12 11 -3 -4 -12 -2 -15 9 -11 8 4 17 -1 21 -10 3 -9 10 -13 16 -10
5 3 10 1 10 -4 0 -6 6 -11 14 -11 8 0 16 -3 18 -7 2 -5 24 -18 51 -31 26 -13
47 -27 47 -32 0 -4 11 -11 25 -14 14 -4 25 -11 25 -17 0 -6 5 -7 10 -4 6 3 10
3 10 -2 0 -4 19 -17 41 -28 23 -10 43 -25 46 -32 3 -7 9 -10 14 -7 5 3 16 -2
25 -10 9 -9 19 -14 24 -11 5 3 10 1 12 -4 1 -5 10 -11 18 -13 14 -3 20 -7 54
-35 8 -7 22 -13 31 -13 9 0 13 -4 10 -10 -3 -5 1 -10 9 -10 8 0 18 -5 22 -12
5 -7 2 -8 -7 -3 -8 5 -11 4 -6 -1 5 -5 12 -9 15 -10 22 -3 60 -25 65 -38 8
-21 109 -16 135 7 10 9 26 17 36 17 11 0 14 4 10 12 -5 8 -2 9 9 5 10 -4 16
-2 14 6 -1 7 6 11 16 11 10 -1 16 0 13 3 -10 10 25 35 40 29 8 -3 13 -2 10 2
-3 5 4 16 15 25 23 20 33 22 23 5 -5 -7 7 2 25 19 18 18 41 33 52 33 11 0 17
5 14 10 -5 9 15 15 38 11 4 0 7 5 7 12 0 7 9 13 20 14 11 1 27 9 36 17 8 9 30
23 49 32 19 9 32 21 28 27 -3 5 -2 8 3 4 5 -3 27 3 49 13 22 11 36 20 30 20
-5 0 3 7 19 15 16 9 31 13 33 11 3 -2 13 3 23 12 37 34 50 43 50 35 0 -4 7 1
15 11 8 11 15 16 15 10 0 -5 3 -5 8 1 4 6 21 18 37 27 17 10 29 21 28 26 -1 5
10 7 24 4 18 -3 24 -1 19 7 -4 6 -1 11 7 11 8 0 20 7 27 15 7 8 16 12 21 9 5
-3 12 2 15 10 3 9 11 13 17 9 5 -3 16 2 24 12 7 11 13 15 13 11 0 -4 21 7 46
24 25 18 48 29 51 26 3 -3 17 6 30 20 12 14 23 20 23 14 0 -6 5 -8 10 -5 6 4
8 11 5 16 -3 5 1 6 9 3 9 -3 16 -1 16 6 0 6 4 9 9 6 5 -3 12 1 15 10 3 9 13
14 20 11 8 -3 17 1 20 10 4 9 13 13 22 9 8 -3 13 -2 10 3 -7 11 22 23 35 16 5
-4 6 1 3 10 -5 12 -2 16 12 13 11 -2 18 2 16 10 -1 7 8 12 23 12 14 0 25 5 25
11 0 5 4 8 9 5 5 -3 11 1 15 9 3 8 12 15 21 15 8 0 15 5 15 11 0 5 5 7 10 4 6
-3 10 -1 10 5 0 6 5 8 10 5 6 -3 10 -3 10 2 0 4 13 17 28 28 27 19 27 19 12 0
-14 -19 -14 -19 6 -2 11 9 24 14 29 10 4 -5 5 -3 2 3 -4 7 7 18 26 28 17 8 45
24 61 35 17 11 33 18 38 15 4 -3 11 2 14 10 3 9 11 16 16 16 6 0 17 8 25 17 8
10 12 12 8 6 -3 -8 6 -6 24 5 17 9 31 20 31 25 0 4 9 7 21 7 14 0 19 5 16 14
-4 10 -1 13 9 9 8 -3 22 3 30 13 9 11 13 12 9 4 -4 -8 1 -6 10 5 9 11 19 20
23 20 4 0 6 4 4 9 -2 5 5 3 14 -5 10 -8 15 -9 12 -4 -3 6 6 19 20 29 14 11 22
14 18 8 -5 -8 -2 -10 8 -6 9 3 14 9 13 12 -1 4 0 7 3 7 3 0 18 8 33 18 15 10
32 15 38 12 5 -4 8 -1 7 6 -2 7 3 13 10 14 7 0 16 6 21 13 5 8 11 13 15 13 20
-3 26 0 20 11 -5 7 -3 8 6 3 7 -4 15 -3 19 3 3 6 13 12 21 14 8 2 21 9 28 15
7 7 23 13 35 13 18 0 19 2 7 10 -12 8 -11 10 6 10 12 0 31 9 44 20 13 11 29
20 37 20 8 0 12 4 9 9 -3 5 9 11 27 15 25 5 29 9 17 16 -12 8 -9 10 11 10 14
0 37 10 50 21 13 12 36 26 52 31 15 6 27 14 27 19 0 5 8 9 18 9 22 1 54 25 45
34 -4 4 0 4 10 0 10 -3 19 -1 22 8 3 8 15 14 26 15 27 2 51 22 42 36 -3 5 -1
7 5 3 6 -3 16 0 24 7 7 8 19 12 26 9 6 -2 15 3 18 12 3 9 10 13 15 10 5 -3 9
-1 9 4 0 6 11 13 24 16 14 3 32 14 42 24 10 9 20 17 23 17 24 3 50 18 45 27
-4 7 -2 8 5 4 6 -4 18 0 27 8 8 9 21 16 28 16 7 0 21 9 31 20 10 11 22 20 28
20 5 0 22 9 38 21 16 11 29 17 29 13 0 -4 9 3 20 16 11 13 20 20 20 17 0 -3
12 0 27 8 15 8 31 11 36 8 6 -4 8 1 4 10 -3 9 -3 16 1 15 15 -3 62 15 62 23 0
5 7 9 15 9 9 0 18 7 21 15 5 13 9 13 22 3 10 -9 13 -9 9 -1 -5 7 1 14 15 19
26 8 48 28 48 43 0 6 5 11 11 11 6 0 9 9 6 20 -3 13 -1 18 6 13 6 -4 8 0 4 10
-3 10 -3 17 2 17 4 0 8 7 8 15 0 8 -5 15 -11 15 -8 0 -8 2 0 8 11 8 14 352 2
352 -3 0 -4 9 -1 20 3 11 10 17 17 13 8 -5 8 -3 0 8 -16 21 -26 51 -14 44 6
-3 10 -2 10 4 0 5 -5 13 -11 17 -8 5 -8 9 1 14 9 6 9 12 0 30 -8 15 -8 20 -1
16 13 -9 13 -9 2 32 -8 26 -7 34 4 39 8 3 12 9 9 14 -3 5 -9 7 -13 4 -9 -5 -6
43 3 52 3 4 0 13 -7 21 -9 13 -9 14 1 8 7 -4 12 -1 12 9 0 10 -5 13 -12 9 -10
-6 -10 -5 -1 7 7 9 8 20 3 29 -5 8 -6 18 -4 22 3 5 7 22 9 38 3 24 1 28 -13
24 -13 -5 -14 -4 -3 4 7 5 11 14 7 20 -3 6 -1 14 5 18 8 5 9 3 4 -6 -6 -9 -4
-11 4 -5 9 5 10 10 2 18 -14 14 -15 60 -1 52 5 -3 7 0 4 9 -3 8 -13 12 -22 10
-15 -5 -15 -4 -1 5 10 7 14 22 12 48 -1 21 3 40 10 45 9 6 9 8 -1 8 -7 0 -11
4 -7 9 3 5 1 13 -5 16 -8 5 -7 11 1 21 6 8 8 14 4 14 -4 0 -1 8 6 17 12 15 12
16 -4 10 -15 -5 -16 -4 -7 13 13 23 13 43 1 35 -5 -3 -13 0 -17 6 -4 8 -3 9 4
5 7 -4 12 -2 12 4 0 6 4 8 10 5 6 -3 7 1 4 9 -3 9 -11 13 -18 9 -8 -5 -8 -3 0
8 6 8 10 22 9 31 -2 10 1 21 7 24 5 4 3 13 -7 24 -15 17 -15 19 2 29 10 6 13
11 8 11 -12 0 -15 100 -3 100 5 0 4 9 -2 20 -6 11 -8 20 -4 20 3 0 0 8 -7 17
-8 9 -9 14 -2 10 16 -10 21 12 12 47 -6 21 -5 32 4 38 9 6 9 8 0 8 -7 0 -13 5
-13 11 0 5 6 7 13 3 9 -6 9 -4 2 7 -9 13 -11 31 -5 52 6 21 2 55 -8 74 -11 20
-10 22 4 16 14 -5 15 -3 5 15 -7 13 -7 23 -1 27 6 4 6 15 -1 32 -6 17 -6 30 1
38 8 9 8 15 0 20 -6 3 -7 12 -3 18 14 22 11 48 -5 42 -12 -4 -13 -3 -2 10 7 8
9 15 5 15 -4 0 -2 6 4 14 7 8 8 17 3 20 -5 3 -7 18 -5 33 2 16 4 33 4 38 -5
98 -4 162 2 158 4 -2 7 0 7 6 0 5 -6 11 -12 14 -10 3 -10 7 -1 17 9 10 9 19 2
33 -8 14 -8 18 0 13 6 -4 11 -2 11 3 0 6 -5 11 -11 11 -8 0 -8 5 1 15 9 11 9
15 1 15 -8 0 -9 5 -2 18 6 11 6 24 1 32 -5 9 -5 19 2 27 8 10 7 13 -3 13 -11
0 -11 2 1 10 9 6 10 10 3 10 -12 0 -10 30 2 50 3 6 0 10 -7 10 -9 0 -9 3 2 10
8 5 10 10 3 10 -11 0 -10 66 1 77 3 3 1 14 -4 24 -6 11 -6 20 -1 23 14 9 5 41
-10 38 -9 -2 -7 3 4 16 14 15 15 21 5 24 -11 4 -10 8 1 21 10 13 10 17 1 17
-7 0 -10 6 -7 14 3 7 0 19 -6 26 -9 9 -9 11 -1 7 7 -4 15 0 18 9 9 24 8 27
-10 20 -14 -5 -15 -4 -4 9 7 8 9 15 4 15 -5 0 -2 5 6 10 8 5 10 10 3 10 -7 0
-9 9 -5 23 4 18 3 20 -9 12 -8 -5 -6 -2 4 8 11 10 14 17 7 17 -10 0 -10 3 -1
14 10 11 8 17 -6 25 -12 7 -13 10 -4 11 7 0 11 6 8 15 -4 8 -2 17 4 21 6 3 6
10 1 17 -5 7 -12 21 -16 31 -5 15 -4 17 7 7 12 -9 13 -7 9 14 -2 14 -11 25
-21 26 -11 0 -9 3 7 9 19 8 21 12 10 29 -9 16 -9 23 3 37 12 15 12 16 0 9 -11
-6 -13 -3 -9 12 3 11 1 28 -5 38 -7 13 -6 16 2 11 15 -10 14 7 -1 23 -10 11
-10 13 0 7 7 -5 12 -1 12 9 0 10 -5 13 -12 9 -9 -5 -9 -2 1 9 11 14 11 17 0
18 -8 0 -5 4 6 9 11 5 15 9 9 9 -6 1 -10 11 -10 24 1 12 -3 28 -8 36 -8 11 -8
13 2 7 8 -5 12 0 12 13 0 12 -6 21 -12 21 -9 0 -9 3 -3 8 12 8 14 101 2 119
-4 6 -4 14 1 17 14 8 7 193 -9 223 -17 34 -54 73 -69 73 -5 0 -10 5 -10 10 0
6 -7 10 -15 10 -8 0 -15 5 -15 10 0 6 -7 10 -16 10 -8 0 -22 7 -31 15 -8 8
-19 13 -24 10 -5 -4 -9 -1 -9 4 0 6 -7 11 -15 11 -8 0 -15 5 -15 10 0 6 -7 10
-15 10 -8 0 -15 5 -15 11 0 5 -4 7 -10 4 -5 -3 -10 -1 -10 6 0 7 -3 10 -6 6
-4 -3 -13 1 -21 9 -8 8 -19 12 -24 9 -5 -4 -9 -2 -9 2 0 5 -17 17 -37 28 -21
11 -42 26 -46 33 -7 10 -12 11 -23 1 -8 -7 -14 -8 -12 -3 2 5 -1 9 -5 9 -5 0
-13 8 -18 18 -6 9 -14 15 -20 12 -5 -4 -12 1 -15 9 -3 9 -10 14 -14 11 -5 -3
-16 2 -24 11 -9 8 -16 12 -16 8 0 -4 -8 2 -17 13 -10 11 -24 18 -30 16 -7 -3
-16 2 -19 11 -3 9 -10 13 -15 10 -5 -3 -12 1 -15 10 -3 8 -11 13 -19 10 -7 -3
-15 2 -19 11 -3 10 -12 15 -21 11 -9 -3 -15 1 -15 10 0 10 -6 14 -15 10 -9 -3
-18 1 -21 9 -4 8 -13 15 -21 15 -8 0 -11 5 -8 10 3 6 -4 10 -17 10 -26 1 -61
24 -51 33 3 4 -4 7 -16 7 -12 0 -24 6 -27 14 -3 8 -12 12 -20 9 -7 -3 -16 2
-20 10 -3 10 -12 13 -22 10 -11 -5 -14 -2 -9 10 4 12 1 15 -14 12 -10 -2 -19
0 -19 6 0 5 -7 9 -15 9 -8 0 -15 5 -15 10 0 6 -6 10 -13 10 -7 0 -23 9 -34 19
-16 15 -23 17 -33 8 -7 -7 -10 -7 -8 -2 7 12 -17 37 -26 28 -3 -4 -6 -1 -6 6
0 7 -4 10 -9 7 -5 -3 -11 1 -15 9 -3 8 -15 15 -26 15 -11 0 -20 5 -20 11 0 5
-4 7 -10 4 -5 -3 -10 -3 -10 2 0 4 -12 17 -27 27 -16 12 -23 14 -18 5 4 -8 -2
-4 -14 9 -12 12 -26 20 -32 17 -5 -4 -9 1 -9 10 0 9 -4 14 -9 10 -5 -3 -16 1
-24 9 -8 8 -17 12 -21 9 -3 -4 -6 -1 -6 6 0 7 -4 10 -9 6 -6 -3 -14 3 -20 12
-6 10 -11 14 -11 9 0 -5 -9 -1 -19 8 -11 10 -25 15 -30 11 -6 -3 -11 1 -11 9
0 9 -9 16 -21 16 -11 0 -17 5 -14 10 3 6 -1 10 -10 10 -16 0 -56 20 -66 33 -3
4 -15 9 -27 10 -11 0 -20 4 -19 7 1 3 -2 6 -7 7 -5 1 -12 5 -15 10 -12 16
-108 62 -116 55 -5 -4 -5 -1 -1 6 4 7 1 12 -8 12 -9 0 -16 5 -16 10 0 6 -6 10
-13 10 -7 0 -22 8 -33 18 -11 9 -26 18 -34 20 -7 2 -32 18 -54 35 -22 18 -37
25 -32 17 4 -8 -1 -6 -11 6 -10 11 -24 19 -30 17 -6 -2 -18 6 -27 19 -11 15
-16 17 -16 8 -1 -12 -3 -11 -11 3 -5 9 -17 17 -24 17 -8 0 -15 4 -15 10 0 5
-6 9 -12 7 -7 -1 -12 3 -11 9 2 10 -4 12 -47 16 -10 1 -17 4 -15 6 7 8 -23 32
-39 32 -9 0 -16 5 -16 11 0 5 -4 7 -10 4 -5 -3 -10 -1 -10 5 0 7 -6 10 -13 7
-15 -5 -39 18 -29 29 4 4 -1 4 -10 1 -10 -3 -24 0 -32 8 -8 8 -22 15 -31 15
-9 0 -13 5 -10 10 3 6 -3 10 -15 10 -12 0 -18 5 -15 10 3 6 -1 10 -9 10 -8 0
-21 6 -28 13 -7 7 -17 15 -23 16 -35 11 -44 17 -79 48 -8 7 -16 9 -20 6 -3 -4
-6 -1 -6 6 0 7 -4 9 -10 6 -5 -3 -10 -1 -10 5 0 6 -4 8 -10 5 -5 -3 -20 5 -33
17 -13 13 -30 22 -37 20 -8 -3 -10 0 -5 8 6 10 4 12 -9 7 -10 -4 -19 -1 -22 7
-3 8 -12 17 -20 20 -10 4 -13 1 -9 -7 4 -6 0 -4 -8 6 -8 9 -19 17 -26 17 -6 0
-11 5 -11 10 0 6 -7 10 -15 10 -8 0 -15 5 -15 11 0 5 -5 7 -12 3 -6 -4 -17 1
-24 10 -7 10 -15 17 -18 17 -16 -1 -76 31 -83 43 -8 14 -12 16 -34 16 -5 0 -7
5 -3 12 4 6 3 8 -4 4 -6 -3 -13 -2 -17 4 -4 6 -11 8 -16 5 -5 -4 -9 -1 -9 4 0
6 -7 11 -15 11 -8 0 -15 5 -15 10 0 6 -9 10 -21 10 -11 0 -18 4 -15 9 7 11
-22 23 -36 14 -7 -3 -8 -1 -4 5 4 7 1 12 -8 12 -8 0 -16 3 -18 8 -1 4 -20 16
-40 26 -21 10 -35 23 -32 28 3 5 2 8 -3 6 -17 -4 -93 37 -93 51 0 8 -3 11 -7
8 -3 -4 -12 -2 -19 4 -15 12 -66 18 -104 11z"/>
</g>
</svg>
